#N canvas 555 167 839 1387 12;
#X obj 25 72 oscparse;
#X obj 25 100 list trim;
#X obj 25 128 route phiz;
#X obj 25 156 route blendshapes;
#X obj 25 44 netreceive -u -b 41235;
#N canvas 63 961 719 278 (subpatch) 0;
#X array blendshapes 52 float 3;
#A 0 0.0191833 0.0806235 0.0465661 0.0275414 0.0162244 0.0247888 0.02202 0.338056 0.303815 0.0468291 0.136891 0.147133 0.0382296 0.0493866 0.0809286 0.111372 0.183162 0.0133446 0.010767 0.00280206 1.34968e-07 5.00655e-07 0.000724844 0.000724452 0.0080639 0.00920851 0.16277 0.00906515 0.00449583 0.000259807 0.00123166 0.235588 0.214049 2.66388e-06 2.2691e-06 0.0670131 0.190425 0.148107 0.161339 0.30755 0.343021 0.196205 0.176104 0.00183002 0.000567641 0.000132615 0.0046267 0.0479764 0.00244927 0.00597506 0.00350923 0.685714;
#X coords 0 1 52 -1 400 280 1 0 0;
#X restore 19 349 graph;
#N canvas 208 233 1078 833 list-drip 0;
#X obj 84 139 t a a;
#X obj 97 322 spigot;
#X obj 128 217 bang;
#X obj 128 251 1;
#X obj 351 229 route bang;
#X obj 217 229 bang;
#X obj 217 263 0;
#X obj 128 183 list split 2;
#X obj 242 533 list split;
#X obj 306 436 list length;
#X obj 306 470 >> 1;
#X obj 97 356 t a a a a;
#X obj 17 702 list split;
#X obj 141 579 list length;
#X obj 139 651 >> 1;
#X obj 31 13 inlet;
#X obj 483 322 outlet;
#X text 463 12 Copyright 2009 by Mathieu Bouchard;
#X obj 31 47 t b a;
#X obj 486 183 outlet;
#X text 638 138 signal end of list;
#X text 463 43 made compatible with [list-drip]: fbar 2009;
#X connect 0 0 1 0;
#X connect 0 1 7 0;
#X connect 1 0 11 0;
#X connect 2 0 3 0;
#X connect 3 0 1 1;
#X connect 4 1 16 0;
#X connect 5 0 6 0;
#X connect 6 0 1 1;
#X connect 7 0 2 0;
#X connect 7 2 4 0;
#X connect 7 2 5 0;
#X connect 8 0 0 0;
#X connect 9 0 10 0;
#X connect 10 0 8 1;
#X connect 11 0 12 0;
#X connect 11 1 13 0;
#X connect 11 2 8 0;
#X connect 11 3 9 0;
#X connect 12 1 0 0;
#X connect 13 0 14 0;
#X connect 14 0 12 1;
#X connect 15 0 18 0;
#X connect 18 0 19 0;
#X connect 18 1 0 0;
#X restore 25 209 pd list-drip;
#X obj 29 295 tabwrite blendshapes;
#X msg 144 210 0;
#X obj 25 180 t l b;
#X obj 26 234 t f b;
#X obj 116 259 f;
#X obj 184 259 + 1;
#X obj 527 19 tgl 31 0 empty empty empty 0 -16 0 24 #fcfcfc #000000 #000000 0 1;
#X obj 529 89 bng 31 250 50 0 empty empty empty 0 -16 0 24 #fcfcfc #000000 #000000;
#X obj 529 138 i;
#X obj 528 169 + 1;
#X floatatom 528 206 5 0 0 0 - - - 0;
#X obj 509 458 bng 31 250 50 0 empty empty empty 0 -16 0 24 #fcfcfc #000000 #000000;
#X obj 545 458 bng 31 250 50 0 empty empty empty 0 -16 0 24 #fcfcfc #000000 #000000;
#X obj 581 458 bng 31 250 50 0 empty empty empty 0 -16 0 24 #fcfcfc #000000 #000000;
#X obj 618 458 bng 31 250 50 0 empty empty empty 0 -16 0 24 #fcfcfc #000000 #000000;
#X obj 508 631 mtof;
#X obj 1279 964 dac~;
#X obj 508 661 osc~;
#X msg 509 500 57;
#X msg 545 500 60;
#X msg 581 500 62;
#X msg 618 500 64;
#X obj 654 458 bng 31 250 50 0 empty empty empty 0 -16 0 24 #fcfcfc #000000 #000000;
#X msg 654 500 65;
#X obj 764 458 bng 31 250 50 0 empty empty empty 0 -16 0 24 #fcfcfc #000000 #000000;
#X obj 802 458 bng 31 250 50 0 empty empty empty 0 -16 0 24 #fcfcfc #000000 #000000;
#X obj 838 458 bng 31 250 50 0 empty empty empty 0 -16 0 24 #fcfcfc #000000 #000000;
#X obj 874 458 bng 31 250 50 0 empty empty empty 0 -16 0 24 #fcfcfc #000000 #000000;
#X obj 911 458 bng 31 250 50 0 empty empty empty 0 -16 0 24 #fcfcfc #000000 #000000;
#X obj 1020 458 bng 31 250 50 0 empty empty empty 0 -16 0 24 #fcfcfc #000000 #000000;
#X obj 1056 458 bng 31 250 50 0 empty empty empty 0 -16 0 24 #fcfcfc #000000 #000000;
#X obj 1094 458 bng 31 250 50 0 empty empty empty 0 -16 0 24 #fcfcfc #000000 #000000;
#X obj 1133 458 bng 31 250 50 0 empty empty empty 0 -16 0 24 #fcfcfc #000000 #000000;
#X obj 1172 458 bng 31 250 50 0 empty empty empty 0 -16 0 24 #fcfcfc #000000 #000000;
#X obj 769 628 mtof;
#X obj 769 658 osc~;
#X obj 462 374 tabread blendshapes;
#X obj 507 540 *;
#X obj 711 374 tabread blendshapes;
#X obj 711 344 + 5;
#X obj 768 540 *;
#X obj 971 344 + 10;
#X obj 528 59 metro 100;
#X obj 461 287 % 10;
#X obj 509 428 sel 0 1 2 3 4 5 6 7 8 9;
#X obj 709 285 % 10;
#X obj 969 285 % 10;
#X obj 764 428 sel 0 1 2 3 4 5 6 7 8 9;
#X obj 1020 428 sel 0 1 2 3 4 5 6 7 8 9;
#X obj 1021 627 mtof;
#X obj 1021 657 osc~;
#X obj 1021 540 *;
#X obj 711 404 > 0.1;
#X obj 462 344 / 2;
#X obj 711 314 / 2;
#X obj 971 374 tabread blendshapes;
#X obj 974 428 > 0.1;
#X obj 971 314 / 2;
#X msg 1020 500 45;
#X msg 1056 500 48;
#X msg 1094 500 50;
#X msg 1133 500 52;
#X msg 1172 500 53;
#X msg 764 500 52;
#X msg 802 500 48;
#X msg 838 500 47;
#X msg 874 500 45;
#X msg 911 500 41;
#X obj 1266 458 bng 31 250 50 0 empty empty empty 0 -16 0 24 #fcfcfc #000000 #000000;
#X obj 1302 458 bng 31 250 50 0 empty empty empty 0 -16 0 24 #fcfcfc #000000 #000000;
#X obj 1341 458 bng 31 250 50 0 empty empty empty 0 -16 0 24 #fcfcfc #000000 #000000;
#X obj 1380 458 bng 31 250 50 0 empty empty empty 0 -16 0 24 #fcfcfc #000000 #000000;
#X obj 1265 629 mtof;
#X obj 1265 659 osc~;
#X obj 1416 458 bng 31 250 50 0 empty empty empty 0 -16 0 24 #fcfcfc #000000 #000000;
#X obj 1220 374 tabread blendshapes;
#X obj 1266 540 *;
#X obj 1219 285 % 10;
#X obj 1266 428 sel 0 1 2 3 4 5 6 7 8 9;
#X obj 1219 314 / 2;
#X obj 1218 341 + 24;
#X msg 1266 500 81;
#X msg 1302 500 79;
#X msg 1341 500 76;
#X msg 1380 500 74;
#X msg 1416 500 72;
#X obj 1508 455 bng 31 250 50 0 empty empty empty 0 -16 0 24 #fcfcfc #000000 #000000;
#X obj 1545 455 bng 31 250 50 0 empty empty empty 0 -16 0 24 #fcfcfc #000000 #000000;
#X obj 1582 455 bng 31 250 50 0 empty empty empty 0 -16 0 24 #fcfcfc #000000 #000000;
#X obj 1616 455 bng 31 250 50 0 empty empty empty 0 -16 0 24 #fcfcfc #000000 #000000;
#X obj 1506 624 mtof;
#X obj 1506 654 osc~;
#X obj 1654 455 bng 31 250 50 0 empty empty empty 0 -16 0 24 #fcfcfc #000000 #000000;
#X obj 1460 381 tabread blendshapes;
#X obj 1504 537 *;
#X obj 1460 291 % 10;
#X obj 1508 425 sel 0 1 2 3 4 5 6 7 8 9;
#X obj 1460 321 / 2;
#X msg 1508 497 84;
#X obj 1460 351 + 29;
#X msg 1545 497 81;
#X msg 1582 497 79;
#X msg 1616 497 77;
#X msg 1654 497 76;
#X obj 1757 454 bng 31 250 50 0 empty empty empty 0 -16 0 24 #fcfcfc #000000 #000000;
#X obj 1793 456 bng 31 250 50 0 empty empty empty 0 -16 0 24 #fcfcfc #000000 #000000;
#X obj 1829 456 bng 31 250 50 0 empty empty empty 0 -16 0 24 #fcfcfc #000000 #000000;
#X obj 1863 456 bng 31 250 50 0 empty empty empty 0 -16 0 24 #fcfcfc #000000 #000000;
#X obj 1757 620 mtof;
#X obj 1757 650 osc~;
#X obj 1901 456 bng 31 250 50 0 empty empty empty 0 -16 0 24 #fcfcfc #000000 #000000;
#X obj 1708 381 tabread blendshapes;
#X obj 1753 536 *;
#X obj 1708 291 % 10;
#X obj 1757 424 sel 0 1 2 3 4 5 6 7 8 9;
#X obj 1708 321 / 2;
#X obj 1708 351 + 34;
#X msg 1757 496 88;
#X msg 1793 498 86;
#X msg 1829 498 84;
#X msg 1863 498 81;
#X msg 1901 498 79;
#X obj 462 477 > 0.1;
#X obj 1022 702 *~ 0.5;
#X obj 1268 785 *~ 0.3;
#X obj 1220 428 > 0.1;
#X obj 1462 474 > 0.1;
#X obj 1709 425 > 0.1;
#X obj 905 875 line~;
#X obj 905 906 vd~ delBuff;
#X obj 906 967 delwrite~ delBuff 1000;
#X obj 1083 938 *~ 0.4;
#X obj 1268 818 *~ 0.4;
#X obj 905 846 pack 1000 f;
#X obj 906 938 *~ 0.1;
#X obj 507 604 +;
#X obj 768 598 +;
#X obj 1021 597 +;
#X obj 1266 599 +;
#X obj 1506 595 +;
#X obj 1758 592 +;
#X obj 525 573 expr shift;
#X obj 906 763 tabread blendshapes;
#X obj 905 818 + 150;
#X obj 906 736 + 47;
#X obj 785 568 expr shift;
#X obj 1037 568 expr shift;
#X obj 1283 568 expr shift;
#X obj 1521 564 expr shift;
#X obj 1773 561 expr shift;
#X obj 906 790 * 200;
#X text 23 17 Receive data from osc and write into array;
#X text 365 17 Press to start music;
#X text 772 220 Move brows to control bass;
#X text 303 220 Move brows to control auto;
#X text 1336 221 Move mouth to control soprano;
#X text 971 803 Move jaw to control delay/reverb;
#X obj 507 774 tabread blendshapes;
#X obj 506 742 + 51;
#X obj 506 804 v shift;
#X text 560 744 Move tongue to control pitch shift;
#X text 3 662 Blendshape Order browInnerUp browDownLeft browDownRight browOuterUpLeft browOuterUpRight eyeLookUpLeft eyeLookUpRight eyeLookDownLeft eyeLookDownRight eyeLookInLeft eyeLookInRight eyeLookOutLeft eyeLookOutRight eyeBlinkLeft eyeBlinkRight eyeSquintLeft eyeSquintRight eyeWideLeft eyeWideRight cheekPuff cheekSquintLeft cheekSquintRight noseSneerLeft noseSneerRight mouthFunnel mouthPucker mouthRollUpper mouthRollLower mouthShrugUpper mouthShrugLower mouthClose mouthSmileLeft mouthSmileRight mouthFrownLeft mouthFrownRight mouthDimpleLeft mouthDimpleRight mouthUpperUpLeft mouthUpperUpRight mouthLowerDownLeft mouthLowerDownRight mouthPressLeft mouthPressRight mouthStretchLeft mouthStretchRight mouthLeft mouthRight jawOpen jawForward jawLeft jawRight tongue tongueOut;
#X obj 192 111 print;
#X connect 0 0 1 0;
#X connect 0 0 169 0;
#X connect 1 0 2 0;
#X connect 2 0 3 0;
#X connect 3 0 9 0;
#X connect 4 0 0 0;
#X connect 6 0 10 0;
#X connect 8 0 11 1;
#X connect 9 0 6 0;
#X connect 9 1 8 0;
#X connect 10 0 7 0;
#X connect 10 1 11 0;
#X connect 11 0 12 0;
#X connect 11 0 7 1;
#X connect 12 0 11 1;
#X connect 13 0 49 0;
#X connect 14 0 15 0;
#X connect 15 0 16 0;
#X connect 16 0 15 1;
#X connect 16 0 17 0;
#X connect 17 0 50 0;
#X connect 17 0 52 0;
#X connect 17 0 53 0;
#X connect 17 0 102 0;
#X connect 17 0 84 0;
#X connect 17 0 120 0;
#X connect 18 0 25 0;
#X connect 19 0 26 0;
#X connect 19 0 165 0;
#X connect 20 0 27 0;
#X connect 21 0 28 0;
#X connect 22 0 24 0;
#X connect 24 0 130 0;
#X connect 25 0 44 0;
#X connect 26 0 44 0;
#X connect 27 0 44 0;
#X connect 28 0 44 0;
#X connect 29 0 30 0;
#X connect 30 0 44 0;
#X connect 31 0 70 0;
#X connect 32 0 71 0;
#X connect 33 0 72 0;
#X connect 34 0 73 0;
#X connect 35 0 74 0;
#X connect 35 0 151 0;
#X connect 36 0 65 0;
#X connect 37 0 66 0;
#X connect 38 0 67 0;
#X connect 39 0 68 0;
#X connect 40 0 69 0;
#X connect 41 0 42 0;
#X connect 42 0 130 0;
#X connect 43 0 129 0;
#X connect 44 0 142 0;
#X connect 44 0 148 0;
#X connect 45 0 59 0;
#X connect 46 0 45 0;
#X connect 47 0 143 0;
#X connect 47 0 152 0;
#X connect 48 0 62 0;
#X connect 49 0 14 0;
#X connect 50 0 51 0;
#X connect 50 0 60 0;
#X connect 51 0 18 0;
#X connect 51 2 19 0;
#X connect 51 4 20 0;
#X connect 51 6 21 0;
#X connect 51 8 29 0;
#X connect 52 0 54 0;
#X connect 52 0 61 0;
#X connect 53 0 55 0;
#X connect 53 0 64 0;
#X connect 54 0 31 0;
#X connect 54 2 32 0;
#X connect 54 4 33 0;
#X connect 54 6 34 0;
#X connect 54 8 35 0;
#X connect 55 1 36 0;
#X connect 55 3 37 0;
#X connect 55 5 38 0;
#X connect 55 7 39 0;
#X connect 55 9 40 0;
#X connect 56 0 57 0;
#X connect 57 0 130 0;
#X connect 58 0 144 0;
#X connect 58 0 153 0;
#X connect 59 0 47 1;
#X connect 60 0 43 0;
#X connect 61 0 46 0;
#X connect 62 0 63 0;
#X connect 63 0 58 1;
#X connect 64 0 48 0;
#X connect 65 0 58 0;
#X connect 66 0 58 0;
#X connect 67 0 58 0;
#X connect 68 0 58 0;
#X connect 69 0 58 0;
#X connect 70 0 47 0;
#X connect 71 0 47 0;
#X connect 72 0 47 0;
#X connect 73 0 47 0;
#X connect 74 0 47 0;
#X connect 75 0 88 0;
#X connect 76 0 89 0;
#X connect 77 0 90 0;
#X connect 78 0 91 0;
#X connect 79 0 80 0;
#X connect 80 0 131 0;
#X connect 81 0 92 0;
#X connect 82 0 132 0;
#X connect 83 0 145 0;
#X connect 83 0 154 0;
#X connect 84 0 85 0;
#X connect 84 0 86 0;
#X connect 85 0 75 0;
#X connect 85 2 76 0;
#X connect 85 4 77 0;
#X connect 85 6 78 0;
#X connect 85 8 81 0;
#X connect 86 0 87 0;
#X connect 87 0 82 0;
#X connect 88 0 83 0;
#X connect 89 0 83 0;
#X connect 90 0 83 0;
#X connect 91 0 83 0;
#X connect 92 0 83 0;
#X connect 93 0 105 0;
#X connect 94 0 107 0;
#X connect 95 0 108 0;
#X connect 96 0 109 0;
#X connect 97 0 98 0;
#X connect 98 0 131 0;
#X connect 99 0 110 0;
#X connect 100 0 133 0;
#X connect 101 0 146 0;
#X connect 101 0 155 0;
#X connect 102 0 103 0;
#X connect 102 0 104 0;
#X connect 103 1 93 0;
#X connect 103 3 94 0;
#X connect 103 5 95 0;
#X connect 103 7 96 0;
#X connect 103 9 99 0;
#X connect 104 0 106 0;
#X connect 105 0 101 0;
#X connect 106 0 100 0;
#X connect 107 0 101 0;
#X connect 108 0 101 0;
#X connect 109 0 101 0;
#X connect 110 0 101 0;
#X connect 111 0 124 0;
#X connect 112 0 125 0;
#X connect 113 0 126 0;
#X connect 114 0 127 0;
#X connect 115 0 116 0;
#X connect 116 0 131 0;
#X connect 117 0 128 0;
#X connect 118 0 134 0;
#X connect 119 0 147 0;
#X connect 119 0 156 0;
#X connect 120 0 121 0;
#X connect 120 0 122 0;
#X connect 121 1 111 0;
#X connect 121 3 112 0;
#X connect 121 5 113 0;
#X connect 121 7 114 0;
#X connect 121 9 117 0;
#X connect 122 0 123 0;
#X connect 123 0 118 0;
#X connect 124 0 119 0;
#X connect 125 0 119 0;
#X connect 126 0 119 0;
#X connect 127 0 119 0;
#X connect 128 0 119 0;
#X connect 129 0 44 1;
#X connect 130 0 139 0;
#X connect 131 0 139 0;
#X connect 132 0 83 1;
#X connect 133 0 101 1;
#X connect 134 0 119 1;
#X connect 135 0 136 0;
#X connect 136 0 138 0;
#X connect 136 0 141 0;
#X connect 138 0 23 0;
#X connect 138 0 23 1;
#X connect 139 0 23 0;
#X connect 139 0 23 1;
#X connect 139 0 137 0;
#X connect 140 0 135 0;
#X connect 141 0 137 0;
#X connect 142 0 22 0;
#X connect 143 0 41 0;
#X connect 144 0 56 0;
#X connect 145 0 79 0;
#X connect 146 0 97 0;
#X connect 147 0 115 0;
#X connect 148 0 142 1;
#X connect 149 0 157 0;
#X connect 150 0 140 0;
#X connect 151 0 149 0;
#X connect 152 0 143 1;
#X connect 153 0 144 1;
#X connect 154 0 145 1;
#X connect 155 0 146 1;
#X connect 156 0 147 1;
#X connect 157 0 150 0;
#X connect 164 0 166 0;
#X connect 165 0 164 0;
